<mxfile host="65bd71144e">
    <diagram id="gZswXv2AW-qB2atw6bDv" name="Page-1">
        <mxGraphModel dx="2580" dy="364" grid="1" gridSize="10" guides="1" tooltips="1" connect="1" arrows="1" fold="1" page="0" pageScale="1" pageWidth="850" pageHeight="1100" math="0" shadow="0">
            <root>
                <mxCell id="0"/>
                <mxCell id="1" parent="0"/>
                <mxCell id="107" value="" style="group" vertex="1" connectable="0" parent="1">
                    <mxGeometry x="-240" y="470" width="1090" height="670" as="geometry"/>
                </mxCell>
                <mxCell id="106" value="&amp;lt;&amp;lt;device&amp;gt;&amp;gt;&lt;br&gt;Docker host" style="verticalAlign=top;align=center;spacingTop=8;spacingLeft=2;spacingRight=12;shape=cube;size=10;direction=south;fontStyle=4;html=1;" vertex="1" parent="107">
                    <mxGeometry x="-30" y="-60" width="1120" height="730" as="geometry"/>
                </mxCell>
                <mxCell id="14" value="" style="group" vertex="1" connectable="0" parent="107">
                    <mxGeometry y="280" width="180" height="100" as="geometry"/>
                </mxCell>
                <mxCell id="15" value="&amp;lt;&amp;lt;container&amp;gt;&amp;gt;&lt;br&gt;api-gateway" style="verticalAlign=top;align=center;spacingTop=8;spacingLeft=2;spacingRight=12;shape=cube;size=10;direction=south;fontStyle=0;html=1;" vertex="1" parent="14">
                    <mxGeometry width="180" height="100" as="geometry"/>
                </mxCell>
                <mxCell id="16" value="«artifact»&lt;br&gt;&lt;b&gt;Nginx&lt;/b&gt;" style="html=1;" vertex="1" parent="14">
                    <mxGeometry x="10" y="50" width="150" height="40" as="geometry"/>
                </mxCell>
                <mxCell id="38" value="" style="group" vertex="1" connectable="0" parent="107">
                    <mxGeometry x="440" y="550" width="180" height="100" as="geometry"/>
                </mxCell>
                <mxCell id="39" value="&amp;lt;&amp;lt;container&amp;gt;&amp;gt;&lt;br&gt;broker" style="verticalAlign=top;align=center;spacingTop=8;spacingLeft=2;spacingRight=12;shape=cube;size=10;direction=south;fontStyle=0;html=1;" vertex="1" parent="38">
                    <mxGeometry width="180" height="100" as="geometry"/>
                </mxCell>
                <mxCell id="40" value="«artifact»&lt;br&gt;&lt;b&gt;RabbitMQ&lt;/b&gt;" style="html=1;" vertex="1" parent="38">
                    <mxGeometry x="10" y="50" width="150" height="40" as="geometry"/>
                </mxCell>
                <mxCell id="41" value="" style="group" vertex="1" connectable="0" parent="107">
                    <mxGeometry x="220" y="420" width="180" height="100" as="geometry"/>
                </mxCell>
                <mxCell id="42" value="&amp;lt;&amp;lt;container&amp;gt;&amp;gt;&lt;br&gt;logs-collector" style="verticalAlign=top;align=center;spacingTop=8;spacingLeft=2;spacingRight=12;shape=cube;size=10;direction=south;fontStyle=0;html=1;" vertex="1" parent="41">
                    <mxGeometry width="180" height="100" as="geometry"/>
                </mxCell>
                <mxCell id="43" value="«artifact»&lt;br&gt;&lt;b&gt;Filebeat&lt;/b&gt;" style="html=1;" vertex="1" parent="41">
                    <mxGeometry x="10" y="50" width="150" height="40" as="geometry"/>
                </mxCell>
                <mxCell id="44" value="" style="group" vertex="1" connectable="0" parent="107">
                    <mxGeometry x="220" y="550" width="180" height="100" as="geometry"/>
                </mxCell>
                <mxCell id="45" value="&amp;lt;&amp;lt;container&amp;gt;&amp;gt;&lt;br&gt;logs-storage" style="verticalAlign=top;align=center;spacingTop=8;spacingLeft=2;spacingRight=12;shape=cube;size=10;direction=south;fontStyle=0;html=1;" vertex="1" parent="44">
                    <mxGeometry width="180" height="100" as="geometry"/>
                </mxCell>
                <mxCell id="46" value="«artifact»&lt;br&gt;&lt;b&gt;Elasticsearch&lt;/b&gt;" style="html=1;" vertex="1" parent="44">
                    <mxGeometry x="10" y="50" width="150" height="40" as="geometry"/>
                </mxCell>
                <mxCell id="47" value="" style="group" vertex="1" connectable="0" parent="107">
                    <mxGeometry y="550" width="180" height="100" as="geometry"/>
                </mxCell>
                <mxCell id="48" value="&amp;lt;&amp;lt;container&amp;gt;&amp;gt;&lt;br&gt;logs-ui" style="verticalAlign=top;align=center;spacingTop=8;spacingLeft=2;spacingRight=12;shape=cube;size=10;direction=south;fontStyle=0;html=1;" vertex="1" parent="47">
                    <mxGeometry width="180" height="100" as="geometry"/>
                </mxCell>
                <mxCell id="49" value="«artifact»&lt;br&gt;&lt;b&gt;Kibana&lt;/b&gt;" style="html=1;" vertex="1" parent="47">
                    <mxGeometry x="10" y="50" width="150" height="40" as="geometry"/>
                </mxCell>
                <mxCell id="71" style="edgeStyle=none;html=1;exitX=0;exitY=0;exitDx=100;exitDy=95;exitPerimeter=0;entryX=0;entryY=0;entryDx=0;entryDy=85;entryPerimeter=0;endArrow=none;endFill=0;" edge="1" parent="107" source="11" target="39">
                    <mxGeometry relative="1" as="geometry"/>
                </mxCell>
                <mxCell id="72" style="edgeStyle=none;html=1;exitX=0;exitY=0;exitDx=55;exitDy=180;exitPerimeter=0;entryX=0;entryY=0;entryDx=0;entryDy=85;entryPerimeter=0;endArrow=none;endFill=0;" edge="1" parent="107" source="27" target="39">
                    <mxGeometry relative="1" as="geometry"/>
                </mxCell>
                <mxCell id="73" style="edgeStyle=none;html=1;exitX=0;exitY=0;exitDx=100;exitDy=95;exitPerimeter=0;entryX=0;entryY=0;entryDx=45;entryDy=0;entryPerimeter=0;endArrow=none;endFill=0;" edge="1" parent="107" source="33" target="39">
                    <mxGeometry relative="1" as="geometry"/>
                </mxCell>
                <mxCell id="74" style="edgeStyle=none;html=1;exitX=0;exitY=0;exitDx=100;exitDy=95;exitPerimeter=0;entryX=0;entryY=0;entryDx=55;entryDy=180;entryPerimeter=0;endArrow=none;endFill=0;" edge="1" parent="107" source="15" target="42">
                    <mxGeometry relative="1" as="geometry"/>
                </mxCell>
                <mxCell id="75" style="edgeStyle=none;html=1;exitX=0;exitY=0;exitDx=100;exitDy=95;exitPerimeter=0;entryX=0;entryY=0;entryDx=0;entryDy=85;entryPerimeter=0;endArrow=none;endFill=0;" edge="1" parent="107" source="11" target="42">
                    <mxGeometry relative="1" as="geometry"/>
                </mxCell>
                <mxCell id="76" style="edgeStyle=none;html=1;exitX=0;exitY=0;exitDx=0;exitDy=85;exitPerimeter=0;entryX=0;entryY=0;entryDx=100;entryDy=95;entryPerimeter=0;endArrow=none;endFill=0;" edge="1" parent="107" source="42" target="21">
                    <mxGeometry relative="1" as="geometry"/>
                </mxCell>
                <mxCell id="77" style="edgeStyle=none;html=1;exitX=0;exitY=0;exitDx=45;exitDy=0;exitPerimeter=0;entryX=0;entryY=0;entryDx=55;entryDy=180;entryPerimeter=0;endArrow=none;endFill=0;" edge="1" parent="107" source="42" target="27">
                    <mxGeometry relative="1" as="geometry"/>
                </mxCell>
                <mxCell id="78" style="edgeStyle=none;html=1;exitX=0;exitY=0;exitDx=45;exitDy=0;exitPerimeter=0;entryX=0;entryY=0;entryDx=55;entryDy=180;entryPerimeter=0;endArrow=none;endFill=0;" edge="1" parent="107" source="42" target="33">
                    <mxGeometry relative="1" as="geometry"/>
                </mxCell>
                <mxCell id="79" style="edgeStyle=none;html=1;exitX=0;exitY=0;exitDx=100;exitDy=95;exitPerimeter=0;entryX=0.003;entryY=0.528;entryDx=0;entryDy=0;entryPerimeter=0;endArrow=none;endFill=0;" edge="1" parent="107" source="42" target="45">
                    <mxGeometry relative="1" as="geometry"/>
                </mxCell>
                <mxCell id="87" value="" style="group" vertex="1" connectable="0" parent="107">
                    <mxGeometry x="220" width="400" height="100" as="geometry"/>
                </mxCell>
                <mxCell id="13" value="" style="group" vertex="1" connectable="0" parent="87">
                    <mxGeometry width="180" height="100" as="geometry"/>
                </mxCell>
                <mxCell id="11" value="&amp;lt;&amp;lt;container&amp;gt;&amp;gt;&lt;br&gt;users-v1" style="verticalAlign=top;align=center;spacingTop=8;spacingLeft=2;spacingRight=12;shape=cube;size=10;direction=south;fontStyle=0;html=1;" vertex="1" parent="13">
                    <mxGeometry width="180" height="100" as="geometry"/>
                </mxCell>
                <mxCell id="12" value="«artifact»&lt;br&gt;&lt;b&gt;Users microservice&lt;/b&gt;" style="html=1;" vertex="1" parent="13">
                    <mxGeometry x="10" y="50" width="150" height="40" as="geometry"/>
                </mxCell>
                <mxCell id="17" value="" style="group" vertex="1" connectable="0" parent="87">
                    <mxGeometry x="220" width="180" height="100" as="geometry"/>
                </mxCell>
                <mxCell id="18" value="&amp;lt;&amp;lt;container&amp;gt;&amp;gt;&lt;br&gt;storage-users-v1" style="verticalAlign=top;align=center;spacingTop=8;spacingLeft=2;spacingRight=12;shape=cube;size=10;direction=south;fontStyle=0;html=1;" vertex="1" parent="17">
                    <mxGeometry width="180" height="100" as="geometry"/>
                </mxCell>
                <mxCell id="19" value="«artifact»&lt;br&gt;&lt;b&gt;PostgreSQL&lt;/b&gt;" style="html=1;" vertex="1" parent="17">
                    <mxGeometry x="10" y="50" width="150" height="40" as="geometry"/>
                </mxCell>
                <mxCell id="82" style="edgeStyle=none;html=1;exitX=0;exitY=0;exitDx=45;exitDy=0;exitPerimeter=0;entryX=0.45;entryY=1.011;entryDx=0;entryDy=0;entryPerimeter=0;endArrow=none;endFill=0;" edge="1" parent="87" source="11" target="18">
                    <mxGeometry relative="1" as="geometry"/>
                </mxCell>
                <mxCell id="88" value="" style="group" vertex="1" connectable="0" parent="107">
                    <mxGeometry x="440" y="140" width="400" height="100" as="geometry"/>
                </mxCell>
                <mxCell id="20" value="" style="group" vertex="1" connectable="0" parent="88">
                    <mxGeometry width="180" height="100" as="geometry"/>
                </mxCell>
                <mxCell id="21" value="&amp;lt;&amp;lt;container&amp;gt;&amp;gt;&lt;br&gt;sessions-v1" style="verticalAlign=top;align=center;spacingTop=8;spacingLeft=2;spacingRight=12;shape=cube;size=10;direction=south;fontStyle=0;html=1;" vertex="1" parent="20">
                    <mxGeometry width="180" height="100" as="geometry"/>
                </mxCell>
                <mxCell id="22" value="«artifact»&lt;br&gt;&lt;b&gt;Sessions microservice&lt;/b&gt;" style="html=1;" vertex="1" parent="20">
                    <mxGeometry x="10" y="50" width="150" height="40" as="geometry"/>
                </mxCell>
                <mxCell id="23" value="" style="group" vertex="1" connectable="0" parent="88">
                    <mxGeometry x="220" width="180" height="100" as="geometry"/>
                </mxCell>
                <mxCell id="24" value="&amp;lt;&amp;lt;container&amp;gt;&amp;gt;&lt;br&gt;storage-sessions-v1" style="verticalAlign=top;align=center;spacingTop=8;spacingLeft=2;spacingRight=12;shape=cube;size=10;direction=south;fontStyle=0;html=1;" vertex="1" parent="23">
                    <mxGeometry width="180" height="100" as="geometry"/>
                </mxCell>
                <mxCell id="25" value="«artifact»&lt;br&gt;&lt;b&gt;Redis&lt;/b&gt;" style="html=1;" vertex="1" parent="23">
                    <mxGeometry x="10" y="50" width="150" height="40" as="geometry"/>
                </mxCell>
                <mxCell id="84" style="edgeStyle=none;html=1;exitX=0;exitY=0;exitDx=45;exitDy=0;exitPerimeter=0;entryX=0.445;entryY=1.011;entryDx=0;entryDy=0;entryPerimeter=0;endArrow=none;endFill=0;" edge="1" parent="88" source="21" target="24">
                    <mxGeometry relative="1" as="geometry"/>
                </mxCell>
                <mxCell id="89" value="" style="group" vertex="1" connectable="0" parent="107">
                    <mxGeometry x="660" y="280" width="400" height="100" as="geometry"/>
                </mxCell>
                <mxCell id="26" value="" style="group" vertex="1" connectable="0" parent="89">
                    <mxGeometry width="180" height="100" as="geometry"/>
                </mxCell>
                <mxCell id="27" value="&amp;lt;&amp;lt;container&amp;gt;&amp;gt;&lt;br&gt;messages-v1" style="verticalAlign=top;align=center;spacingTop=8;spacingLeft=2;spacingRight=12;shape=cube;size=10;direction=south;fontStyle=0;html=1;" vertex="1" parent="26">
                    <mxGeometry width="180" height="100" as="geometry"/>
                </mxCell>
                <mxCell id="28" value="«artifact»&lt;br&gt;&lt;b&gt;Messages microservice&lt;/b&gt;" style="html=1;" vertex="1" parent="26">
                    <mxGeometry x="10" y="50" width="150" height="40" as="geometry"/>
                </mxCell>
                <mxCell id="29" value="" style="group" vertex="1" connectable="0" parent="89">
                    <mxGeometry x="220" width="180" height="100" as="geometry"/>
                </mxCell>
                <mxCell id="30" value="&amp;lt;&amp;lt;container&amp;gt;&amp;gt;&lt;br&gt;storage-messages-v1" style="verticalAlign=top;align=center;spacingTop=8;spacingLeft=2;spacingRight=12;shape=cube;size=10;direction=south;fontStyle=0;html=1;" vertex="1" parent="29">
                    <mxGeometry width="180" height="100" as="geometry"/>
                </mxCell>
                <mxCell id="31" value="«artifact»&lt;br&gt;&lt;b&gt;PostgreSQL&lt;/b&gt;" style="html=1;" vertex="1" parent="29">
                    <mxGeometry x="10" y="50" width="150" height="40" as="geometry"/>
                </mxCell>
                <mxCell id="85" style="edgeStyle=none;html=1;exitX=0;exitY=0;exitDx=45;exitDy=0;exitPerimeter=0;entryX=0.45;entryY=1;entryDx=0;entryDy=0;entryPerimeter=0;endArrow=none;endFill=0;" edge="1" parent="89" source="27" target="30">
                    <mxGeometry relative="1" as="geometry"/>
                </mxCell>
                <mxCell id="90" value="" style="group" vertex="1" connectable="0" parent="107">
                    <mxGeometry x="660" y="420" width="400" height="100" as="geometry"/>
                </mxCell>
                <mxCell id="32" value="" style="group" vertex="1" connectable="0" parent="90">
                    <mxGeometry width="180" height="100" as="geometry"/>
                </mxCell>
                <mxCell id="33" value="&amp;lt;&amp;lt;container&amp;gt;&amp;gt;&lt;br&gt;files-v1" style="verticalAlign=top;align=center;spacingTop=8;spacingLeft=2;spacingRight=12;shape=cube;size=10;direction=south;fontStyle=0;html=1;" vertex="1" parent="32">
                    <mxGeometry width="180" height="100" as="geometry"/>
                </mxCell>
                <mxCell id="34" value="«artifact»&lt;br&gt;&lt;b&gt;Files microservice&lt;/b&gt;" style="html=1;" vertex="1" parent="32">
                    <mxGeometry x="10" y="50" width="150" height="40" as="geometry"/>
                </mxCell>
                <mxCell id="35" value="" style="group" vertex="1" connectable="0" parent="90">
                    <mxGeometry x="220" width="180" height="100" as="geometry"/>
                </mxCell>
                <mxCell id="36" value="&amp;lt;&amp;lt;container&amp;gt;&amp;gt;&lt;br&gt;storage-files-v1" style="verticalAlign=top;align=center;spacingTop=8;spacingLeft=2;spacingRight=12;shape=cube;size=10;direction=south;fontStyle=0;html=1;" vertex="1" parent="35">
                    <mxGeometry width="180" height="100" as="geometry"/>
                </mxCell>
                <mxCell id="37" value="«artifact»&lt;br&gt;&lt;b&gt;MongoDB&lt;/b&gt;" style="html=1;" vertex="1" parent="35">
                    <mxGeometry x="10" y="50" width="150" height="40" as="geometry"/>
                </mxCell>
                <mxCell id="86" style="edgeStyle=none;html=1;exitX=0;exitY=0;exitDx=45;exitDy=0;exitPerimeter=0;entryX=0.44;entryY=1.014;entryDx=0;entryDy=0;entryPerimeter=0;endArrow=none;endFill=0;" edge="1" parent="90" source="33" target="36">
                    <mxGeometry relative="1" as="geometry"/>
                </mxCell>
                <mxCell id="91" style="edgeStyle=none;html=1;exitX=0;exitY=0;exitDx=45;exitDy=0;exitPerimeter=0;entryX=0.439;entryY=1.008;entryDx=0;entryDy=0;entryPerimeter=0;endArrow=none;endFill=0;" edge="1" parent="107" source="48" target="45">
                    <mxGeometry relative="1" as="geometry"/>
                </mxCell>
                <mxCell id="92" style="edgeStyle=none;html=0;exitX=0;exitY=0;exitDx=0;exitDy=85;exitPerimeter=0;entryX=0;entryY=0;entryDx=100;entryDy=95;entryPerimeter=0;endArrow=none;endFill=0;" edge="1" parent="107" source="15" target="11">
                    <mxGeometry relative="1" as="geometry"/>
                </mxCell>
                <mxCell id="93" style="edgeStyle=none;html=0;exitX=0;exitY=0;exitDx=100;exitDy=95;exitPerimeter=0;entryX=0;entryY=0;entryDx=55;entryDy=180;entryPerimeter=0;endArrow=none;endFill=0;" edge="1" parent="107" source="11" target="21">
                    <mxGeometry relative="1" as="geometry"/>
                </mxCell>
                <mxCell id="94" style="edgeStyle=none;html=0;exitX=0;exitY=0;exitDx=45;exitDy=0;exitPerimeter=0;entryX=0;entryY=0;entryDx=55;entryDy=180;entryPerimeter=0;endArrow=none;endFill=0;" edge="1" parent="107" source="15" target="21">
                    <mxGeometry relative="1" as="geometry"/>
                </mxCell>
                <mxCell id="95" style="edgeStyle=none;html=0;exitX=0;exitY=0;exitDx=45;exitDy=0;exitPerimeter=0;entryX=0;entryY=0;entryDx=55;entryDy=180;entryPerimeter=0;endArrow=none;endFill=0;" edge="1" parent="107" source="15" target="27">
                    <mxGeometry relative="1" as="geometry"/>
                </mxCell>
                <mxCell id="96" style="edgeStyle=none;html=0;exitX=0;exitY=0;exitDx=100;exitDy=95;exitPerimeter=0;entryX=0;entryY=0;entryDx=55;entryDy=180;entryPerimeter=0;endArrow=none;endFill=0;" edge="1" parent="107" source="21" target="27">
                    <mxGeometry relative="1" as="geometry"/>
                </mxCell>
                <mxCell id="97" style="edgeStyle=none;html=0;exitX=0;exitY=0;exitDx=45;exitDy=0;exitPerimeter=0;entryX=0;entryY=0;entryDx=55;entryDy=180;entryPerimeter=0;endArrow=none;endFill=0;" edge="1" parent="107" source="15" target="33">
                    <mxGeometry relative="1" as="geometry"/>
                </mxCell>
                <mxCell id="98" style="edgeStyle=none;html=0;exitX=0;exitY=0;exitDx=55;exitDy=180;exitPerimeter=0;entryX=0;entryY=0;entryDx=100;entryDy=95;entryPerimeter=0;endArrow=none;endFill=0;" edge="1" parent="107" source="33" target="21">
                    <mxGeometry relative="1" as="geometry"/>
                </mxCell>
                <mxCell id="99" value="HTTP" style="text;align=center;fontStyle=1;verticalAlign=middle;spacingLeft=3;spacingRight=3;strokeColor=none;rotatable=0;points=[[0,0.5],[1,0.5]];portConstraint=eastwest;" vertex="1" parent="107">
                    <mxGeometry x="150" y="230" width="50" height="16" as="geometry"/>
                </mxCell>
                <mxCell id="100" value="HTTP" style="text;align=center;fontStyle=1;verticalAlign=middle;spacingLeft=3;spacingRight=3;strokeColor=none;rotatable=0;points=[[0,0.5],[1,0.5]];portConstraint=eastwest;" vertex="1" parent="107">
                    <mxGeometry x="220" y="264" width="50" height="16" as="geometry"/>
                </mxCell>
                <mxCell id="101" value="HTTP" style="text;align=center;fontStyle=1;verticalAlign=middle;spacingLeft=3;spacingRight=3;strokeColor=none;rotatable=0;points=[[0,0.5],[1,0.5]];portConstraint=eastwest;" vertex="1" parent="107">
                    <mxGeometry x="230" y="310" width="50" height="16" as="geometry"/>
                </mxCell>
                <mxCell id="102" value="HTTP" style="text;align=center;fontStyle=1;verticalAlign=middle;spacingLeft=3;spacingRight=3;strokeColor=none;rotatable=0;points=[[0,0.5],[1,0.5]];portConstraint=eastwest;" vertex="1" parent="107">
                    <mxGeometry x="220" y="360" width="50" height="16" as="geometry"/>
                </mxCell>
                <mxCell id="103" value="gRPC" style="text;align=center;fontStyle=1;verticalAlign=middle;spacingLeft=3;spacingRight=3;strokeColor=none;rotatable=0;points=[[0,0.5],[1,0.5]];portConstraint=eastwest;" vertex="1" parent="107">
                    <mxGeometry x="370" y="130" width="50" height="16" as="geometry"/>
                </mxCell>
                <mxCell id="104" value="gRPC" style="text;align=center;fontStyle=1;verticalAlign=middle;spacingLeft=3;spacingRight=3;strokeColor=none;rotatable=0;points=[[0,0.5],[1,0.5]];portConstraint=eastwest;" vertex="1" parent="107">
                    <mxGeometry x="590" y="270" width="50" height="16" as="geometry"/>
                </mxCell>
                <mxCell id="105" value="gRPC" style="text;align=center;fontStyle=1;verticalAlign=middle;spacingLeft=3;spacingRight=3;strokeColor=none;rotatable=0;points=[[0,0.5],[1,0.5]];portConstraint=eastwest;" vertex="1" parent="107">
                    <mxGeometry x="630" y="404" width="50" height="16" as="geometry"/>
                </mxCell>
                <mxCell id="113" style="edgeStyle=none;html=0;exitX=0;exitY=0;exitDx=25.000000000000004;exitDy=0;exitPerimeter=0;entryX=0.49;entryY=1.014;entryDx=0;entryDy=0;entryPerimeter=0;endArrow=none;endFill=0;" edge="1" parent="1" source="108" target="15">
                    <mxGeometry relative="1" as="geometry"/>
                </mxCell>
                <mxCell id="108" value="&amp;lt;&amp;lt;device&amp;gt;&amp;gt;&lt;br&gt;Client app" style="verticalAlign=top;align=center;spacingTop=8;spacingLeft=2;spacingRight=12;shape=cube;size=10;direction=south;fontStyle=4;html=1;" vertex="1" parent="1">
                    <mxGeometry x="-550" y="775" width="170" height="60" as="geometry"/>
                </mxCell>
                <mxCell id="111" style="edgeStyle=none;html=0;exitX=0;exitY=0;exitDx=25.000000000000004;exitDy=0;exitPerimeter=0;entryX=0;entryY=0;entryDx=55;entryDy=180;entryPerimeter=0;endArrow=none;endFill=0;" edge="1" parent="1" source="110" target="48">
                    <mxGeometry relative="1" as="geometry"/>
                </mxCell>
                <mxCell id="110" value="&amp;lt;&amp;lt;device&amp;gt;&amp;gt;&lt;br&gt;Web browser" style="verticalAlign=top;align=center;spacingTop=8;spacingLeft=2;spacingRight=12;shape=cube;size=10;direction=south;fontStyle=4;html=1;" vertex="1" parent="1">
                    <mxGeometry x="-550" y="1050" width="170" height="60" as="geometry"/>
                </mxCell>
                <mxCell id="114" value="HTTP:80" style="text;align=center;fontStyle=1;verticalAlign=middle;spacingLeft=3;spacingRight=3;strokeColor=none;rotatable=0;points=[[0,0.5],[1,0.5]];portConstraint=eastwest;" vertex="1" parent="1">
                    <mxGeometry x="-340" y="775" width="50" height="16" as="geometry"/>
                </mxCell>
                <mxCell id="115" value="HTTP:5601" style="text;align=center;fontStyle=1;verticalAlign=middle;spacingLeft=3;spacingRight=3;strokeColor=none;rotatable=0;points=[[0,0.5],[1,0.5]];portConstraint=eastwest;" vertex="1" parent="1">
                    <mxGeometry x="-350" y="1050" width="50" height="16" as="geometry"/>
                </mxCell>
            </root>
        </mxGraphModel>
    </diagram>
</mxfile>